<mxfile host="app.diagrams.net" modified="2023-09-01T12:29:35.790Z" agent="Mozilla/5.0 (X11; Ubuntu; Linux x86_64; rv:109.0) Gecko/20100101 Firefox/117.0" version="21.7.1" etag="PnlsTicVXc3enFrYIYuC" type="github">
  <diagram name="Page-1" id="fuXrlGssHHe9MRq6rqeC">
    <mxGraphModel>
      <root>
        <mxCell id="0" />
        <mxCell id="1" parent="0" />
      </root>
    </mxGraphModel>
  </diagram>
</mxfile>
